<svg width="1309" height="397" viewBox="0 0 1309 397" fill="none" xmlns="http://www.w3.org/2000/svg">
<path d="M460.289 111.744C464.139 111.744 467.177 110.493 470.687 108.04L471.418 109.437C466.641 113.418 461.946 114.864 456.649 114.864C443.863 114.864 436.113 105.798 438.827 90.3633C441.475 75.8549 452.003 67.2441 464.659 67.2441C470.947 67.2441 474.131 69.1613 476.974 72.8005L475.642 74.0516C472.994 71.3383 470.086 70.3473 466.836 70.3473C458.095 70.3473 450.736 77.967 448.429 91.4194C446.235 104.401 450.947 111.76 460.289 111.76V111.744Z" fill="#244545"/>
<path d="M484.464 64.5156H492.945L484.204 114.198H475.723L484.464 64.5156Z" fill="#244545"/>
<path d="M498.176 82.5328H506.657L501.101 114.198H492.62L498.176 82.5328ZM500.759 79.2347L506.787 67.8457H515.723L502.417 79.2347H500.759Z" fill="#244545"/>
<path d="M522.351 88.4314C524.334 84.451 527.583 81.8027 532.619 81.8027C539.313 81.8027 543.082 85.572 541.701 93.3217L538.062 114.183H529.516L533.026 93.9066C534.277 86.953 533.351 84.3047 530.247 84.3047C526.332 84.3047 522.563 88.074 520.97 96.3599L517.851 114.183H509.37L514.927 82.5176H523.408L522.351 88.4152V88.4314Z" fill="#244545"/>
<path d="M551.027 82.5333H559.573L554.017 114.198H545.471L551.027 82.5333ZM558.046 67.375C561.019 67.375 562.676 69.2271 562.156 72.2815C561.62 75.1897 559.313 77.0581 556.324 77.0581C553.334 77.0581 551.693 75.206 552.213 72.2815C552.749 69.2271 555.121 67.375 558.046 67.375Z" fill="#244545"/>
<path d="M571.693 98.3095C570.036 107.716 573.025 112.493 578.842 112.493C582.351 112.493 585.34 110.641 586.981 109.179L588.037 110.43C585.454 112.753 582.075 114.865 575.982 114.865C566.039 114.865 561.084 108.577 563.001 97.9033C564.853 87.8303 572.083 81.8027 581.62 81.8027C586.461 81.8027 589.37 83.3299 590.962 85.442L589.711 86.8392C588.46 85.312 586.526 83.9961 583.618 83.9961C577.851 83.9961 573.35 89.0326 571.693 98.3095Z" fill="#244545"/>
<path d="M593.139 97.7084C595.056 86.9855 601.213 81.8027 609.564 81.8027C614.341 81.8027 617.249 83.5899 617.98 88.4964L620.758 82.4689H627.192L621.636 114.199H615.413L614.617 108.041C612.099 113.078 608.59 114.93 603.748 114.93C595.397 114.93 591.157 109.374 593.155 97.7084H593.139ZM602.156 98.3745C600.434 108.171 601.766 112.412 606.331 112.412C610.897 112.412 614.146 108.171 615.868 98.3745C617.59 88.5777 615.868 84.3372 611.303 84.3372C606.737 84.3372 603.878 88.5777 602.156 98.3745Z" fill="#244545"/>
<path d="M438.29 155.498H485.942C529.549 155.498 555.722 170.949 555.722 206.594C555.722 244.222 530.296 258.178 485.942 258.178H466.008V329.956H443.083V168.967C443.083 166.838 442.791 163.362 440.971 159.641C440.143 157.935 439.184 156.57 438.307 155.498H438.29ZM465.991 163.475V250.201H485.926C514.829 250.201 530.784 239.478 530.784 206.334C530.784 175.189 514.829 163.475 485.926 163.475H465.991Z" fill="#244545"/>
<path d="M701.96 155.481C707.126 155.481 712.293 155.481 717.459 155.497V267.893C717.459 310.264 695.282 332.198 656.404 332.198C617.525 332.198 595.592 310.264 595.592 267.893V155.497H617.525V266.398C617.525 297.3 630.978 318.989 662.886 318.989C694.795 318.989 706.753 297.3 706.753 266.398V168.982C706.753 167.228 706.558 164.482 705.388 161.379C704.381 158.698 703 156.732 701.96 155.465V155.481Z" fill="#244545"/>
<path d="M767.24 155.48H816.89C857.019 155.497 881.438 170.704 881.438 204.351C881.438 230.021 865.744 244.724 839.067 249.712L892.649 329.955H865.988L814.891 251.45H794.957V329.955H772.032C772.032 240.208 771.967 174.977 772.032 169.144C772.032 168.169 772.097 165.147 770.798 161.606C769.774 158.811 768.312 156.764 767.24 155.48ZM794.957 163.474V243.229H813.9C843.063 243.229 857.263 230.524 857.263 204.855C857.263 179.185 843.063 163.49 814.144 163.49H794.957V163.474Z" fill="#244545"/>
<path d="M925.987 155.498H953.704V329.956H930.78V168.95C930.829 167.293 930.699 164.548 929.529 161.428C928.489 158.666 927.027 156.7 925.987 155.498Z" fill="#244545"/>
<path d="M1042.17 163.475H1007.04C1005.14 163.475 1002.64 163.475 999.017 163.475H993.574V155.498H1111.95V163.475H1106.29C1102.69 163.475 1100.22 163.475 1098.48 163.475H1065.09V329.956H1042.17V163.475Z" fill="#244545"/>
<path d="M1157.31 155.498L1208.15 249.957L1259.24 155.498H1269.22L1213.9 257.934V329.956H1190.97V261.167L1132.4 155.498H1157.33H1157.31Z" fill="#244545"/>
<path d="M224.385 66.0436C221.721 61.8195 217.919 56.653 212.671 51.4215C207.553 46.32 202.501 42.632 198.341 40C194.182 42.632 189.129 46.32 184.012 51.4215C178.764 56.653 174.978 61.8032 172.298 66.0436C177.578 76.4416 183.004 88.7242 187.813 102.794C192.85 117.546 196.148 131.193 198.341 143.102C200.86 129.569 204.759 114.02 210.868 97.2538C215.108 85.6373 219.738 75.2231 224.369 66.0599L224.385 66.0436Z" fill="url(#paint0_linear_182_3187)"/>
<path d="M172.314 330.689C174.702 334.507 177.887 338.91 182.111 343.394C187.862 349.503 193.662 353.792 198.358 356.732C202.907 353.841 208.479 349.698 214.036 343.898C218.52 339.218 221.883 334.637 224.385 330.705C218.796 318.959 213.175 305.409 208.171 290.153C203.882 277.107 200.713 264.841 198.358 253.646C195.953 264.889 192.752 277.204 188.447 290.267C183.459 305.441 177.87 318.942 172.314 330.689Z" fill="url(#paint1_linear_182_3187)"/>
<path d="M264.466 202.029C274.539 203.686 286.35 206.367 299.218 210.77C311.468 214.961 321.996 219.787 330.688 224.401C335.172 221.606 340.761 217.545 346.317 211.744C350.899 206.984 354.262 202.305 356.732 198.357C354.165 194.165 350.428 188.966 345.148 183.702C339.965 178.536 334.831 174.864 330.688 172.313C318.503 178.845 307.504 183.248 298.73 186.221C286.009 190.542 274.36 193.109 264.466 194.685C259.316 195.546 253.158 196.196 246.205 196.196C239.202 196.196 233.012 195.546 227.846 194.685C225.409 192.248 222.972 189.811 220.535 187.374C231.534 178.585 246.643 168.414 266.009 160.177C276.554 155.693 286.464 152.59 295.27 150.396C296.748 143.784 298.032 135.222 297.967 125.198C297.902 115.823 296.683 107.781 295.27 101.461C288.901 99.9826 280.583 98.6504 270.802 98.6504C261.022 98.6504 252.687 99.9826 246.318 101.461C239.088 110.868 230.949 123.086 223.605 138.163C216.749 152.232 212.297 165.279 209.34 176.196C205.685 172.541 202.029 168.885 198.358 165.214L187.375 176.196C184.288 164.759 179.528 150.868 171.989 135.872C164.954 121.867 157.286 110.429 150.397 101.461C143.85 99.9501 135.271 98.6179 125.215 98.6829C115.791 98.7479 107.733 100.015 101.445 101.461C100.194 107.862 99.1709 115.661 99.0734 124.564C98.9597 134.653 100.064 143.41 101.445 150.413C110.706 152.866 121.12 156.294 132.217 161.184C150.625 169.292 165.23 178.91 176.181 187.407C173.744 189.844 171.307 192.281 168.87 194.718C163.638 195.546 157.448 196.164 150.495 196.148C143.59 196.148 137.448 195.53 132.249 194.718C123.265 193.256 113.062 191.014 102.047 187.52C87.8306 183.02 75.7755 177.545 66.0274 172.346C61.6732 175.14 56.3605 179.088 51.0316 184.531C46.19 189.454 42.6157 194.312 40 198.39C42.502 202.354 45.8976 207 50.4629 211.728C56.0031 217.48 61.527 221.574 66.0436 224.417C79.9996 216.895 92.4772 212.118 102.063 209.096C113.111 205.603 123.33 203.426 132.282 202.045C137.465 201.217 143.606 200.599 150.527 200.599C157.497 200.599 163.687 201.217 168.902 202.045C171.339 204.482 173.776 206.919 176.213 209.356C165.068 217.951 150.235 227.65 131.583 235.806C120.763 240.534 110.576 243.913 101.478 246.334C100.016 252.735 98.716 261.07 98.716 270.834C98.716 280.582 100.016 288.884 101.478 295.286C107.733 296.715 115.743 297.983 125.068 298.048C135.19 298.129 143.817 296.797 150.413 295.286C158.715 284.79 168.252 270.59 176.278 252.573C181.461 240.94 184.97 230.055 187.391 220.55C191.047 224.206 194.702 227.861 198.374 231.533L209.357 220.55C212.167 231.761 216.717 245.684 224.288 260.777C231.452 275.091 239.397 286.561 246.351 295.286C252.005 296.569 258.812 297.641 266.546 297.934C278.048 298.372 287.861 296.959 295.302 295.286C296.765 288.884 298.064 280.582 298.064 270.834C298.064 261.07 296.765 252.735 295.302 246.334C285.847 244.076 274.864 240.68 263.085 235.465C244.856 227.39 230.738 217.642 220.567 209.34C223.004 206.903 225.441 204.466 227.878 202.029C233.077 201.217 239.218 200.599 246.123 200.599C253.077 200.599 259.283 201.2 264.515 202.029H264.466Z" fill="url(#paint2_linear_182_3187)"/>
<defs>
<linearGradient id="paint0_linear_182_3187" x1="224.385" y1="142.966" x2="148.504" y2="120.459" gradientUnits="userSpaceOnUse">
<stop stop-color="#BA9B63"/>
<stop offset="1" stop-color="#EBCB7F"/>
</linearGradient>
<linearGradient id="paint1_linear_182_3187" x1="224.385" y1="356.596" x2="148.526" y2="334.099" gradientUnits="userSpaceOnUse">
<stop stop-color="#BA9B63"/>
<stop offset="1" stop-color="#EBCB7F"/>
</linearGradient>
<linearGradient id="paint2_linear_182_3187" x1="356.731" y1="297.787" x2="88.2291" y2="47.3941" gradientUnits="userSpaceOnUse">
<stop stop-color="#BA9B63"/>
<stop offset="1" stop-color="#EBCB7F"/>
</linearGradient>
</defs>
</svg>
